<?xml version="1.0" encoding="UTF-8"?>
<svg version="1.1" xmlns="http://www.w3.org/2000/svg" width="971" height="691">
<path d="M0 0 C320.43 0 640.86 0 971 0 C971 228.03 971 456.06 971 691 C650.57 691 330.14 691 0 691 C0 462.97 0 234.94 0 0 Z " fill="#FCFCFC" transform="translate(0,0)"/>
<path d="M0 0 C15.33336937 -0.11673914 30.66671825 -0.20494186 46.00043201 -0.25906086 C53.11998654 -0.28485593 60.23926514 -0.32003067 67.35864258 -0.37719727 C74.22508558 -0.43230664 81.0912413 -0.4613951 87.95789146 -0.47438622 C90.58187062 -0.48364799 93.20583349 -0.50173331 95.82969093 -0.52865028 C99.49594094 -0.56477588 103.16099418 -0.56995199 106.82739258 -0.56762695 C108.46629456 -0.59459152 108.46629456 -0.59459152 110.13830566 -0.62210083 C112.85289058 -0.60338636 115.34326587 -0.55633822 118 0 C120.14067078 2.38752747 120.14067078 2.38752747 121 5 C121.30421875 5.78117188 121.6084375 6.56234375 121.921875 7.3671875 C122.33179688 8.60855469 122.33179688 8.60855469 122.75 9.875 C124.38531089 14.5303103 126.31983947 18.98520088 128.4375 23.4375 C131.49996642 29.88005204 134.30731377 36.39311093 137 43 C137.83166173 45.00069568 138.6650098 47.00069117 139.5 49 C140.70984311 51.90163195 141.9186115 54.80367989 143.12255859 57.70776367 C146.39886624 65.60106575 149.75189453 73.46014599 153.125 81.3125 C153.65500578 82.54750121 154.1849539 83.78252717 154.71484375 85.01757812 C155.68868039 87.28698732 156.66276758 89.55628903 157.63720703 91.82543945 C160.52939382 98.56264921 163.40987682 105.30467554 166.28125 112.05078125 C166.69084961 113.01300095 167.10044922 113.97522064 167.52246094 114.96659851 C168.84845514 118.0818361 170.17425575 121.19715603 171.5 124.3125 C172.18243774 125.91605347 172.18243774 125.91605347 172.87866211 127.55200195 C178.16643291 139.97775068 183.4491963 152.40547146 188.70166016 164.84619141 C191.67187035 171.87527175 194.65774097 178.89758354 197.6484375 185.91796875 C198.06993576 186.90742996 198.49143402 187.89689117 198.92570496 188.91633606 C199.35490738 189.92387436 199.7841098 190.93141266 200.22631836 191.96948242 C210.57961761 216.27384943 220.84463711 240.61222313 231 265 C238.75870704 250.47257935 246.18616793 235.78485856 253.5402832 221.04980469 C255.11497025 217.89475604 256.69325884 214.74152516 258.27252769 211.58876801 C264.67089852 198.81172679 271.02422994 186.01704328 277.12705994 173.09527588 C280.62306682 165.70899069 284.2800449 158.4074281 287.94543266 151.10429382 C289.65622823 147.69055587 291.35694133 144.27181508 293.05761719 140.85302734 C296.41524316 134.10580979 299.77642857 127.36037551 303.14010239 120.61617088 C305.15686271 116.57214121 307.17208158 112.52735723 309.18408203 108.48095703 C311.15440896 104.51853789 313.12866508 100.55809929 315.10562897 96.59898758 C315.85175969 95.10305213 316.59649012 93.60641735 317.33974457 92.10905075 C318.37607304 90.02181839 319.4174288 87.93716647 320.45996094 85.85302734 C320.76028732 85.24518402 321.06061371 84.6373407 321.37004089 84.01107788 C323.31765429 80.13441565 325.57814244 76.59394694 328 73 C329.04718798 70.68745988 330.04346365 68.3514852 331 66 C331.72400935 64.35189143 332.45329381 62.70609139 333.1875 61.0625 C333.70376953 59.90427734 333.70376953 59.90427734 334.23046875 58.72265625 C334.48441406 58.15417969 334.73835938 57.58570313 335 57 C335.66 57 336.32 57 337 57 C342.81012021 68.59686147 348.6179541 80.19486493 354.42303181 91.79425144 C357.11988966 97.18279338 359.81747468 102.57096848 362.5168457 107.95825195 C365.1317094 113.17695142 367.74450094 118.39668385 370.35597801 123.61707878 C371.34258507 125.5884739 372.32988439 127.55952277 373.31795692 129.53018379 C379.06263024 140.98897066 384.71325753 152.48569013 390.21081257 164.06536961 C394.66717602 173.44750141 399.32396014 182.72591619 404 192 C409.08922827 202.09356869 414.11784024 212.20572254 418.95703125 222.421875 C423.81182304 232.65066931 428.8628082 242.77577007 433.94921875 252.890625 C434.54062841 254.06755669 434.54062841 254.06755669 435.14398575 255.26826477 C438.83163405 262.60673921 442.52289595 269.94338385 446.22338867 277.27539062 C448.27062271 281.33232303 450.31206358 285.3921249 452.3497715 289.45384979 C453.12066437 290.987595 453.89377529 292.5202275 454.66916466 294.05170441 C455.74154051 296.1701149 456.8065322 298.29208258 457.86987305 300.41503906 C458.18921814 301.04137238 458.50856323 301.66770569 458.83758545 302.3130188 C460.22268916 305.09615408 461 306.84243762 461 310 C461.66 310 462.32 310 463 310 C463.08523926 309.35264893 463.17047852 308.70529785 463.25830078 308.03833008 C464.27162069 303.88732078 466.04640743 300.24057383 467.8671875 296.38671875 C468.25760223 295.54901443 468.64801697 294.71131012 469.05026245 293.84822083 C470.32030852 291.12567717 471.59771664 288.40665466 472.875 285.6875 C473.75485225 283.80367509 474.63408152 281.91955909 475.51269531 280.03515625 C477.23859707 276.33420271 478.9665662 272.6342277 480.69628906 268.93505859 C483.40635873 263.13497085 486.08793299 257.3222925 488.75 251.5 C489.16459473 250.5939502 489.57918945 249.68790039 490.00634766 248.75439453 C495.3901899 236.97427552 500.74321892 225.18006606 506.09837341 213.3868866 C508.28282863 208.57695685 510.47058133 203.76853852 512.66015625 198.9609375 C519.95311676 182.94390716 527.19801017 166.90594447 534.41137695 150.85290527 C539.80488922 138.8518535 545.23429417 126.86886159 550.73828125 114.91796875 C554.31195513 107.15807979 557.83684315 99.37635117 561.3347168 91.58203125 C566.59415633 79.86385559 571.8612092 68.18276193 577.69140625 56.734375 C578.84478858 54.32432237 579.77174484 51.96498014 580.625 49.4375 C582.13867263 45.65331843 582.6091661 45.02269681 586 43 C588.91149679 41.84137397 591.87836573 40.91223719 594.875 40 C595.72489502 39.73799805 596.57479004 39.47599609 597.45043945 39.20605469 C604.56414309 37.05432514 611.67378023 35.27596215 619 34 C620.08667969 33.79503906 621.17335938 33.59007812 622.29296875 33.37890625 C646.02376604 29.6264901 671.62068938 31.08747022 695.0625 35.9375 C695.84415527 36.09508789 696.62581055 36.25267578 697.43115234 36.41503906 C699.59765625 36.90234375 699.59765625 36.90234375 703 38 C704.31510559 41.94531676 703.34574101 42.95853906 701.53515625 46.63671875 C700.98150391 47.77302734 700.42785156 48.90933594 699.85742188 50.08007812 C699.25931133 51.28264996 698.66100383 52.48512385 698.0625 53.6875 C697.2262207 55.39776367 697.2262207 55.39776367 696.37304688 57.14257812 C693.69182454 62.61202712 690.97084007 68.06114417 688.23997498 73.50593567 C682.5783445 84.79733778 677.04173652 96.14939052 671.5 107.5 C660.28804295 130.46438048 660.28804295 130.46438048 654.73970032 141.51205444 C651.48012348 148.01339999 648.33194039 154.56730929 645.1875 161.125 C640.96523899 169.9103567 636.69718843 178.66921544 632.3125 187.375 C628.76529436 194.41826195 625.31323075 201.49803445 621.9375 208.625 C616.70465376 219.66415508 611.22980899 230.57737804 605.74783325 241.49407959 C600.84215118 251.26691313 595.97304402 261.04976 591.34350586 270.95751953 C587.71233387 278.71258372 583.84419285 286.34915922 580 294 C577.00752844 299.9616477 574.01716295 305.92434926 571.02856445 311.88793945 C570.14062201 313.6588132 569.25196007 315.42932638 568.36254883 317.19946289 C563.3798196 327.11797526 558.46918252 337.06336411 553.70703125 347.08984375 C547.04787702 361.0993873 540.06243301 374.94455427 533.09387207 388.80187988 C526.16770153 402.5767136 519.29283344 416.36727827 512.67446899 430.29315186 C509.33142977 437.32640441 505.89383675 444.30274506 502.375 451.25 C499.26469263 457.40889125 496.17219943 463.5665203 493.28125 469.83203125 C492.66564209 471.16476074 492.66564209 471.16476074 492.03759766 472.52441406 C491.28299676 474.1717956 490.53732449 475.82330736 489.80224609 477.47949219 C488.94376875 479.3561245 487.98104355 481.18443239 487 483 C484 484 484 484 480.69921875 482.48046875 C479.35454067 481.72930959 478.01772743 480.96396263 476.6875 480.1875 C475.97835449 479.78023682 475.26920898 479.37297363 474.53857422 478.95336914 C467.35412504 474.75109883 460.63477252 470.01493903 454 465 C452.69482422 464.01580078 452.69482422 464.01580078 451.36328125 463.01171875 C426.44508466 443.63089918 409.72659441 419.06985232 394 392 C393.29157959 390.78352783 393.29157959 390.78352783 392.56884766 389.54248047 C379.32250989 366.73262288 366.75859701 343.54909425 354.4597168 320.21826172 C346.81298876 305.71634307 338.97487777 291.324017 331 277 C328.77625993 279.82511355 327.01771117 282.66971479 325.36328125 285.859375 C324.86763672 286.81199219 324.37199219 287.76460938 323.86132812 288.74609375 C323.35021484 289.73738281 322.83910156 290.72867187 322.3125 291.75 C321.82072266 292.69488281 321.32894531 293.63976562 320.82226562 294.61328125 C317.93488263 300.18048185 315.10281821 305.77428917 312.30250549 311.38571167 C311.59073253 312.81063109 310.87895111 314.23554628 310.16716194 315.66045761 C309.80644073 316.38283285 309.44571951 317.10520808 309.07406735 317.84947348 C307.39987003 321.20159635 305.72386837 324.55281641 304.04795837 327.90408325 C303.36712687 329.26572184 302.68630534 330.62736542 302.00549316 331.98901367 C275.00366211 385.99267578 248.00183105 439.99633789 221 494 C220.01 494 219.02 494 218 494 C217.62004883 493.14510986 217.24009766 492.29021973 216.84863281 491.40942383 C216.46383255 490.54363457 216.46383255 490.54363457 216.07125854 489.66035461 C215.47791328 488.32531213 214.88459161 486.99025916 214.29129028 485.65519714 C212.56664037 481.77444868 210.84153952 477.89390154 209.11572266 474.01367188 C205.41655639 465.69535684 201.72172522 457.37517533 198.03918457 449.04948425 C196.25643497 445.0196548 194.47150489 440.9907928 192.68640137 436.96200562 C191.81957596 435.00414451 190.95375399 433.0458388 190.08898926 431.08706665 C183.89757383 417.04601837 183.89757383 417.04601837 177.12939453 403.27734375 C175.81090304 400.61869942 174.82228241 397.92080687 173.84375 395.125 C172.73163146 392.32410885 171.36895291 389.68422139 170 387 C168.01343501 383.09520394 166.23889206 379.26191724 164.77734375 375.13671875 C163.75664873 372.33108971 162.63367106 369.57435146 161.5 366.8125 C161.0978125 365.82894531 160.695625 364.84539062 160.28125 363.83203125 C159.03345774 361.07395384 157.56301728 358.58794664 156 356 C155.28511758 354.08281532 154.57215003 352.16479825 153.8828125 350.23828125 C152.89681926 347.73839575 151.72656492 345.3906999 150.5 343 C148.98277388 340.03779661 147.61285261 337.13622099 146.5 334 C145.42169101 330.96498425 144.10773044 328.17205157 142.625 325.3125 C140.66458778 321.49115916 139.05834453 317.65079381 137.5625 313.625 C135.51631409 308.14920061 133.0740671 303.02200957 130.40234375 297.828125 C128.73972346 294.4750969 127.38528341 291.05768548 126.03515625 287.5703125 C124.92410664 284.81155536 123.69815793 282.13121353 122.4375 279.4375 C119.57863555 273.30832163 116.84042226 267.1314701 114.125 260.9375 C109.54986744 250.50778911 104.940828 240.09368992 100.3125 229.6875 C99.97354706 228.92526123 99.63459412 228.16302246 99.28536987 227.37768555 C96.52617151 221.17288385 93.76585904 214.96857803 91.00524902 208.7644043 C80.85022178 185.9418702 70.73328549 163.10278097 60.64398193 140.25111389 C57.83256734 133.88388131 55.01851759 127.51781828 52.203125 121.15234375 C43.68692453 101.8957457 35.18507269 82.63300058 26.73413086 63.34765625 C25.99856816 61.66925637 25.26297239 59.99087098 24.52734375 58.3125 C24.16253403 57.48016846 23.7977243 56.64783691 23.42185974 55.7902832 C21.03081623 50.33906829 18.62837515 44.89299315 16.21913147 39.44979858 C14.54634736 35.66977834 12.87684715 31.88831169 11.20755005 28.10675049 C10.41090303 26.3045553 9.61265827 24.50306543 8.81271362 22.70233154 C7.7043579 20.2069981 6.60161781 17.70925131 5.5 15.2109375 C5.17379166 14.48052246 4.84758331 13.75010742 4.51148987 12.99755859 C4.20863571 12.30791016 3.90578156 11.61826172 3.59375 10.90771484 C3.33271484 10.31856293 3.07167969 9.72941101 2.80273438 9.12240601 C1.6729527 6.1352966 0.85077067 3.07634453 0 0 Z " fill="#052457" transform="translate(34,131)"/>
<path d="M0 0 C1.08421234 0.00027191 2.16842468 0.00054382 3.28549194 0.00082397 C36.27895602 0.03885977 67.90004173 2.48247433 99.625 12.0625 C101.39049194 12.59302979 101.39049194 12.59302979 103.19165039 13.13427734 C105.51732743 13.83439521 107.84246332 14.53631374 110.16699219 15.24023438 C112.83909142 16.04493362 115.51504939 16.83245393 118.1953125 17.609375 C125.05708806 19.62416345 131.42545369 21.97743523 137.74609375 25.33984375 C140.63251754 26.86876116 143.57127204 28.25639745 146.53515625 29.62890625 C164.78819284 38.09546333 181.3749906 47.90967921 197.3125 60.1875 C198.23675781 60.89777344 199.16101563 61.60804687 200.11328125 62.33984375 C215.79133702 74.65309128 231.03943876 88.65367685 242.3125 105.1875 C240.94276518 108.29347657 239.41244755 110.28796043 236.92578125 112.5859375 C236.24249756 113.22281494 235.55921387 113.85969238 234.85522461 114.51586914 C233.75126343 115.52895142 233.75126343 115.52895142 232.625 116.5625 C231.48140015 117.62488892 231.48140015 117.62488892 230.31469727 118.70874023 C228.74155528 120.16961983 227.1662645 121.62818881 225.58886719 123.08447266 C222.90552857 125.56348154 220.23538631 128.05630378 217.56689453 130.55126953 C215.74388963 132.25571298 213.91906137 133.95818329 212.09375 135.66015625 C207.9768881 139.50017221 203.86148724 143.34172919 199.75 147.1875 C199.09507568 147.79859619 198.44015137 148.40969238 197.76538086 149.03930664 C194.76819184 151.84489806 191.82752832 154.67424569 188.97265625 157.625 C186.3125 160.1875 186.3125 160.1875 184.3125 160.1875 C183.9825 161.1775 183.6525 162.1675 183.3125 163.1875 C181.68359375 164.79296875 181.68359375 164.79296875 179.75 166.375 C179.10933594 166.90480469 178.46867187 167.43460938 177.80859375 167.98046875 C177.31488281 168.37878906 176.82117188 168.77710938 176.3125 169.1875 C173.28642528 167.84545167 171.32657243 166.40137869 169.10546875 163.95703125 C168.51830078 163.31830078 167.93113281 162.67957031 167.32617188 162.02148438 C166.72353516 161.35439453 166.12089844 160.68730469 165.5 160 C133.24075633 124.64499467 92.21947116 100.35920163 45.3125 90.1875 C44.49426758 90.00815918 43.67603516 89.82881836 42.83300781 89.64404297 C17.214331 84.3683768 -14.17429762 84.39634917 -39.6875 90.1875 C-40.34492187 90.33203613 -41.00234375 90.47657227 -41.6796875 90.62548828 C-46.07965367 91.62276977 -50.37911042 92.85352164 -54.6875 94.1875 C-55.38939453 94.40277344 -56.09128906 94.61804688 -56.81445312 94.83984375 C-86.5955435 104.06338355 -116.27118348 119.19279357 -138.25 141.75 C-139.054375 142.554375 -139.85875 143.35875 -140.6875 144.1875 C-141.3475 144.1875 -142.0075 144.1875 -142.6875 144.1875 C-143.0175 145.1775 -143.3475 146.1675 -143.6875 147.1875 C-145.83737283 149.46766815 -148.06005491 151.61524684 -150.375 153.7265625 C-166.32302934 168.81074025 -178.55285197 189.41088079 -187.75195312 209.18505859 C-188.70445974 211.22380057 -189.68765761 213.24593808 -190.671875 215.26953125 C-198.73223367 232.21990528 -204.45997254 250.69645726 -207.6875 269.1875 C-210.91218117 266.4846039 -212.49526846 262.96962799 -214.3125 259.265625 C-214.65591934 258.57732101 -214.99933868 257.88901703 -215.35316467 257.17985535 C-216.47076194 254.93539978 -217.57936957 252.68664263 -218.6875 250.4375 C-219.45728474 248.8853412 -220.22738751 247.33334009 -220.99780273 245.78149414 C-228.12801308 231.39336062 -235.06900262 216.91871627 -241.87890625 202.37646484 C-242.20761719 201.67473145 -242.53632813 200.97299805 -242.875 200.25 C-243.19339844 199.57018066 -243.51179688 198.89036133 -243.83984375 198.18994141 C-246.07988132 193.42755701 -248.39322698 188.7056184 -250.75 184 C-251.07629395 183.34467285 -251.40258789 182.6893457 -251.73876953 182.01416016 C-253.3694932 178.75352533 -255.03796234 175.52230261 -256.78125 172.3203125 C-257.1124585 171.69793701 -257.44366699 171.07556152 -257.78491211 170.43432617 C-258.68883181 168.73967682 -259.61134296 167.054981 -260.53515625 165.37109375 C-262.01973317 161.26963549 -261.87689188 159.40284475 -260.6875 155.1875 C-258.87988499 151.48988538 -256.780587 148.00368901 -254.625 144.5 C-253.73590942 143.0296228 -253.73590942 143.0296228 -252.82885742 141.52954102 C-245.74897754 129.88554815 -238.14293733 118.86787391 -229.6875 108.1875 C-228.97980469 107.28386719 -228.27210938 106.38023437 -227.54296875 105.44921875 C-216.85067568 92.05905581 -204.83148219 79.20340889 -191.6875 68.1875 C-190.93001465 67.55134766 -190.93001465 67.55134766 -190.15722656 66.90234375 C-167.5289201 48.0213164 -140.93374552 30.55710809 -112.7734375 21.29296875 C-109.68977171 20.26543168 -109.68977171 20.26543168 -106.953125 18.7734375 C-102.46130823 16.59200495 -97.81785553 15.12756026 -93.0625 13.625 C-92.0828125 13.31344971 -91.103125 13.00189941 -90.09375 12.6809082 C-84.14678475 10.83283354 -78.32681329 9.30217549 -72.125 8.57421875 C-69.58695434 8.24073381 -69.58695434 8.24073381 -66.86328125 7.23828125 C-63.24615915 6.04147209 -59.61788718 5.34133769 -55.875 4.6875 C-51.59386054 3.9212637 -47.34063736 3.14054467 -43.125 2.0625 C-29.25075129 -1.0366603 -14.1186054 -0.01327806 0 0 Z " fill="#015AFD" transform="translate(683.6875,47.8125)"/>
<path d="M0 0 C3.55480003 1.50841813 5.79559622 3.57633661 8.484375 6.32421875 C9.33773438 7.18853516 10.19109375 8.05285156 11.0703125 8.94335938 C11.95460938 9.84892578 12.83890625 10.75449219 13.75 11.6875 C19.09630379 17.14088851 24.4319534 22.49223312 30.23535156 27.46020508 C32.78973583 29.68910679 35.13129616 32.07421896 37.5 34.5 C41.18580604 38.24173826 44.97211794 41.78053496 48.96875 45.1875 C52.32411708 48.18151986 55.43067015 51.42285772 58.58984375 54.62109375 C61.59897286 57.5912066 64.74150454 60.3081994 68 63 C67.42023343 67.21366059 64.94668232 70.22665197 62.5 73.5625 C61.82505493 74.49231689 61.82505493 74.49231689 61.13647461 75.44091797 C53.73669998 85.54723001 45.57447197 94.88798468 37 104 C36.38382813 104.65871094 35.76765625 105.31742188 35.1328125 105.99609375 C31.00732377 110.26962634 26.48242252 113.98579326 21.8515625 117.69921875 C20.07427864 119.13321901 18.31526887 120.5905529 16.5859375 122.08203125 C-35.87303594 166.96359741 -106.62060281 184.19091129 -174.29345703 184.18530273 C-177.23094258 184.18748584 -180.16804935 184.20570106 -183.10546875 184.22460938 C-197.3356742 184.26653612 -211.43927626 183.64979432 -225.37890625 180.546875 C-228.04896559 179.98978363 -230.72806203 179.56817248 -233.42236328 179.14746094 C-256.44875406 175.43509805 -280.25612578 168.80310309 -301 158 C-298.05736196 150.01182867 -294.33735409 142.46410235 -290.48989868 134.88604736 C-288.68433289 131.32853038 -286.8927942 127.76396941 -285.1015625 124.19921875 C-284.74566544 123.4913623 -284.38976837 122.78350586 -284.02308655 122.05419922 C-281.04283661 116.11381721 -278.15643378 110.13183846 -275.3125 104.125 C-271.2583097 95.60030989 -267.16407065 87.09651066 -263 78.625 C-262.44739502 77.4817627 -261.89479004 76.33852539 -261.32543945 75.16064453 C-260.80554443 74.10989746 -260.28564941 73.05915039 -259.75 71.9765625 C-259.29109375 71.03893066 -258.8321875 70.10129883 -258.359375 69.13525391 C-257 67 -257 67 -254 66 C-251.13196961 66.96298831 -248.3659887 67.9996698 -245.5625 69.125 C-193.85199334 88.97437865 -133.0581962 86.27818975 -82.59082031 64.00073242 C-55.86971711 51.88121577 -33.97606582 35.12458507 -13.3125 14.5 C-12.82238434 14.01106262 -12.33226868 13.52212524 -11.82730103 13.01837158 C-5.54344047 6.83206951 -5.54344047 6.83206951 0 0 Z " fill="#015AFD" transform="translate(858,458)"/>
<path d="M0 0 C0 4.33685836 -2.08014014 5.9443327 -5 9 C-5.99 9 -6.98 9 -8 9 C-8.24492188 9.59296875 -8.48984375 10.1859375 -8.7421875 10.796875 C-10.20952109 13.36698726 -11.72292225 14.54529966 -14.125 16.25 C-14.84945312 16.77078125 -15.57390625 17.2915625 -16.3203125 17.828125 C-16.87460937 18.21484375 -17.42890625 18.6015625 -18 19 C-18.66 18.34 -19.32 17.68 -20 17 C-19.39414062 16.52691406 -18.78828125 16.05382812 -18.1640625 15.56640625 C-11.88417129 10.61012288 -5.88936675 5.41320519 0 0 Z " fill="#1A65FA" transform="translate(836,481)"/>
<path d="M0 0 C0.33 0 0.66 0 1 0 C1.65450987 5.23607896 0.09690299 8.09046826 -2.61328125 12.36328125 C-4 14 -4 14 -7 15 C-5.63408831 11.45756548 -4.09068516 8.07372071 -2.375 4.6875 C-1.70597656 3.36298828 -1.70597656 3.36298828 -1.0234375 2.01171875 C-0.68570312 1.34785156 -0.34796875 0.68398437 0 0 Z " fill="#1C3568" transform="translate(365,197)"/>
<path d="M0 0 C0.66 0 1.32 0 2 0 C2.66 1.98 3.32 3.96 4 6 C3.34 6.66 2.68 7.32 2 8 C1.67 7.67 1.34 7.34 1 7 C0.67 7.66 0.34 8.32 0 9 C-0.99 9 -1.98 9 -3 9 C-2.01 6.03 -1.02 3.06 0 0 Z " fill="#1F3363" transform="translate(369,188)"/>
<path d="M0 0 C0.99 0.66 1.98 1.32 3 2 C3 2.66 3 3.32 3 4 C2.38125 4.04125 1.7625 4.0825 1.125 4.125 C0.42375 4.41375 -0.2775 4.7025 -1 5 C-2.25 7.91666667 -2.25 7.91666667 -3 11 C-3.33 11.66 -3.66 12.32 -4 13 C-4.66 13 -5.32 13 -6 13 C-4.58707905 8.1725201 -2.57025846 4.2837641 0 0 Z " fill="#DFE3EB" transform="translate(364,407)"/>
<path d="M0 0 C0 0.99 0 1.98 0 3 C-1.57725347 3.70133599 -3.16211333 4.385583 -4.75 5.0625 C-5.63171875 5.44535156 -6.5134375 5.82820313 -7.421875 6.22265625 C-10.15256309 7.04600008 -11.36901347 6.9773992 -14 6 C-12.04414675 4.99515796 -10.08523763 3.99626195 -8.125 3 C-6.48917969 2.1646875 -6.48917969 2.1646875 -4.8203125 1.3125 C-2 0 -2 0 0 0 Z " fill="#1F6BFB" transform="translate(554,77)"/>
<path d="M0 0 C2.71212397 2.36921174 3.92238997 4.67106739 5.25 8 C5.60578125 8.86625 5.9615625 9.7325 6.328125 10.625 C7 13 7 13 6 16 C4.79994469 13.9021477 3.61497017 11.7979751 2.4375 9.6875 C1.92413086 8.79514648 1.92413086 8.79514648 1.40039062 7.88476562 C0.52233738 6.29717441 -0.24586268 4.65006069 -1 3 C-0.67 2.01 -0.34 1.02 0 0 Z " fill="#162C5E" transform="translate(381,433)"/>
<path d="M0 0 C3 1 3 1 4.16796875 2.77734375 C4.50441406 3.49019531 4.84085937 4.20304688 5.1875 4.9375 C5.70376953 6.00291016 5.70376953 6.00291016 6.23046875 7.08984375 C7 9 7 9 7 11 C4 10 4 10 2.83203125 8.22265625 C2.49558594 7.50980469 2.15914063 6.79695312 1.8125 6.0625 C1.46832031 5.35222656 1.12414062 4.64195312 0.76953125 3.91015625 C0 2 0 2 0 0 Z " fill="#263764" transform="translate(399,249)"/>
<path d="M0 0 C0 3.9765245 -1.38011503 5.0890167 -4 8 C-6.25 9.8125 -6.25 9.8125 -8 11 C-8.66 10.67 -9.32 10.34 -10 10 C-6.7 6.7 -3.4 3.4 0 0 Z " fill="#296EFA" transform="translate(852,465)"/>
<path d="M0 0 C0.99 0 1.98 0 3 0 C2.62403791 2.78211944 2.32681541 4.5879284 0.5625 6.8125 C-1 8 -1 8 -3 8 C-1.125 2.25 -1.125 2.25 0 0 Z " fill="#243C6C" transform="translate(612,186)"/>
<path d="M0 0 C2.31 0.33 4.62 0.66 7 1 C7.33 1.99 7.66 2.98 8 4 C5 5 5 5 1.8125 3.5625 C0.884375 3.046875 -0.04375 2.53125 -1 2 C-0.67 1.34 -0.34 0.68 0 0 Z " fill="#182B59" transform="translate(513,610)"/>
<path d="M0 0 C0.66 0 1.32 0 2 0 C4.5393228 3.41831915 5.3636198 5.75776898 5 10 C2.08772731 6.71195019 0.50298788 4.40114397 0 0 Z " fill="#112C61" transform="translate(422,510)"/>
<path d="M0 0 C2.64465038 3.1254959 3.84414715 6.08788267 5 10 C2 9 2 9 0.25 6.125 C-1 3 -1 3 0 0 Z " fill="#334573" transform="translate(410,268)"/>
<path d="M0 0 C0.90105469 0.11085938 1.80210937 0.22171875 2.73046875 0.3359375 C3.76107422 0.47902344 3.76107422 0.47902344 4.8125 0.625 C4.8125 0.955 4.8125 1.285 4.8125 1.625 C0.15712607 2.46296731 -3.55828475 2.6411692 -8.1875 1.625 C-4.73535147 -0.67643236 -3.95270676 -0.51333854 0 0 Z " fill="#1564FA" transform="translate(621.1875,633.375)"/>
<path d="M0 0 C2.64465038 3.1254959 3.84414715 6.08788267 5 10 C2 9 2 9 0.8125 7.25 C-0.10819096 4.70039426 -0.14948718 2.69076919 0 0 Z " fill="#2D416F" transform="translate(440,329)"/>
<path d="M0 0 C0.33 0 0.66 0 1 0 C0.67 2.31 0.34 4.62 0 7 C-0.66 7 -1.32 7 -2 7 C-1.67 7.99 -1.34 8.98 -1 10 C-1.99 10.33 -2.98 10.66 -4 11 C-3.52269162 9.5410574 -3.04308958 8.08286504 -2.5625 6.625 C-2.29566406 5.81289063 -2.02882813 5.00078125 -1.75390625 4.1640625 C-1 2 -1 2 0 0 Z " fill="#2C426F" transform="translate(557,307)"/>
<path d="M0 0 C0.66 0.66 1.32 1.32 2 2 C1.625 4.625 1.625 4.625 1 7 C-0.32 7.33 -1.64 7.66 -3 8 C-1.125 2.25 -1.125 2.25 0 0 Z " fill="#2C4473" transform="translate(353,220)"/>
<path d="M0 0 C-0.639375 0.309375 -1.27875 0.61875 -1.9375 0.9375 C-3.93610821 1.8345163 -3.93610821 1.8345163 -5 3 C-7.9375 3.1875 -7.9375 3.1875 -11 3 C-11.66 2.34 -12.32 1.68 -13 1 C-8.61414671 0.29826347 -4.44209357 -0.10834375 0 0 Z " fill="#1C6AF7" transform="translate(745,51)"/>
<path d="M0 0 C3.0916909 2.52956528 3.90931332 5.22454612 5 9 C4.01 9.495 4.01 9.495 3 10 C0 3.375 0 3.375 0 0 Z " fill="#0D295E" transform="translate(410,487)"/>
<path d="M0 0 C0.33 0 0.66 0 1 0 C0.67 2.97 0.34 5.94 0 9 C-3 6 -3 6 -4 3 C-2.68 3 -1.36 3 0 3 C0 2.01 0 1.02 0 0 Z " fill="#1667FB" transform="translate(476,308)"/>
<path d="M0 0 C0.33 0 0.66 0 1 0 C1.36923077 5.53846154 1.36923077 5.53846154 -0.5 7.875 C-1.2425 8.431875 -1.2425 8.431875 -2 9 C-3 6 -3 6 -1.5625 2.8125 C-1.046875 1.884375 -0.53125 0.95625 0 0 Z " fill="#236CFA" transform="translate(598,531)"/>
<path d="M0 0 C-1.45255699 3.82946843 -3.42895561 5.12050295 -7 7 C-7 6.01 -7 5.02 -7 4 C-2.65714286 0 -2.65714286 0 0 0 Z " fill="#1664FA" transform="translate(505,107)"/>
<path d="M0 0 C0 0.99 0 1.98 0 3 C-3.375 3.625 -3.375 3.625 -7 4 C-7.66 3.34 -8.32 2.68 -9 2 C-2.25 0 -2.25 0 0 0 Z " fill="#1B68FB" transform="translate(599,60)"/>
<path d="M0 0 C0.66 0.33 1.32 0.66 2 1 C1.1875 3.9375 1.1875 3.9375 0 7 C-0.99 7.33 -1.98 7.66 -3 8 C-1.125 2.25 -1.125 2.25 0 0 Z " fill="#CDD2E0" transform="translate(562,528)"/>
<path d="M0 0 C0.33 0.99 0.66 1.98 1 3 C-0.98 3.99 -2.96 4.98 -5 6 C-5.66 5.34 -6.32 4.68 -7 4 C-4.69 2.68 -2.38 1.36 0 0 Z " fill="#1462FA" transform="translate(805,506)"/>
<path d="M0 0 C0.99 0.33 1.98 0.66 3 1 C2.1875 3.4375 2.1875 3.4375 1 6 C0.01 6.33 -0.98 6.66 -2 7 C-1.34 4.69 -0.68 2.38 0 0 Z " fill="#1B3263" transform="translate(560,300)"/>
<path d="M0 0 C2.97 0 5.94 0 9 0 C9 0.33 9 0.66 9 1 C8.05125 1.28875 7.1025 1.5775 6.125 1.875 C2.94788422 2.76825109 2.94788422 2.76825109 1 5 C0.67 3.35 0.34 1.7 0 0 Z " fill="#123063" transform="translate(35,133)"/>
<path d="M0 0 C4.455 0.99 4.455 0.99 9 2 C5 4 5 4 2.8125 3.8125 C2.214375 3.544375 1.61625 3.27625 1 3 C0.67 2.01 0.34 1.02 0 0 Z " fill="#2671FA" transform="translate(804,67)"/>
<path d="M0 0 C1.32 0 2.64 0 4 0 C4 0.66 4 1.32 4 2 C1.47524538 3.26237731 -0.31200466 3.09856404 -3.125 3.0625 C-4.03507813 3.05347656 -4.94515625 3.04445312 -5.8828125 3.03515625 C-6.58148437 3.02355469 -7.28015625 3.01195312 -8 3 C-8 2.67 -8 2.34 -8 2 C-5.36 2 -2.72 2 0 2 C0 1.34 0 0.68 0 0 Z " fill="#D2E5FD" transform="translate(735,47)"/>
<path d="M0 0 C0.66 0.33 1.32 0.66 2 1 C0.68 3.64 -0.64 6.28 -2 9 C-2.33 9 -2.66 9 -3 9 C-2.67 6.69 -2.34 4.38 -2 2 C-1.34 2 -0.68 2 0 2 C0 1.34 0 0.68 0 0 Z " fill="#172F62" transform="translate(548,554)"/>
<path d="M0 0 C0.33 0 0.66 0 1 0 C0.67 2.31 0.34 4.62 0 7 C-0.99 7.33 -1.98 7.66 -3 8 C-2.37240135 5.07120629 -1.41377341 2.63904371 0 0 Z " fill="#F3F4F6" transform="translate(556,304)"/>
<path d="M0 0 C0.66 0.99 1.32 1.98 2 3 C0.625 5.5 0.625 5.5 -1 8 C-1.66 8 -2.32 8 -3 8 C-1.125 2.25 -1.125 2.25 0 0 Z " fill="#314674" transform="translate(347,232)"/>
<path d="M0 0 C0.33 0.99 0.66 1.98 1 3 C-0.28965176 4.37562854 -1.62689293 5.70766393 -3 7 C-3.66 7 -4.32 7 -5 7 C-3.70700306 4.11562221 -2.34058637 2.12780579 0 0 Z " fill="#1B67F9" transform="translate(473,134)"/>
</svg>
